{"title":"A.Turtles.Tale.Sammys.Adventure.2010.UNCUT.BDRip.XVID.AC3.HQ.Hiv","uid":6059586,"size":1940514471,"categoryP":"video","categoryS":"movies","magnet":"?xt=urn:btih:42d1056232480a4330cb1a452c3e59232ce6712a&amp;dn=A.Turtles.Tale.Sammys.Adventure.2010.UNCUT.BDRip.XVID.AC3.HQ.Hiv&amp;tr=udp%3A%2F%2Ftracker.openbittorrent.com%3A80&amp;tr=udp%3A%2F%2Fopen.demonii.com%3A1337&amp;tr=udp%3A%2F%2Ftracker.coppersurfer.tk%3A6969&amp;tr=udp%3A%2F%2Fexodus.desync.com%3A6969","seeders":0,"leechers":1,"uploader":"SAFCukO09","files":131,"time":1293055089,"description":"Thx Hive\n\nCM8 Doing It Right The First Time\n\nWhy download a touched up rip of a rip BRrip\nGet the real deal BDRip\nEnjoy\n\nSources:\nVideo: French Bluray\nLe Voyage extraordinaire de Samy 3D - Combo Blu-ray + DVD - Blu-ray 3D active [Blu-ray]\nAudio: A.Turtles.Tale.Sammys.Adventure.2010.LiMITED.DVDSCR.XViD-HLS (stereo)\nand\nthe French DTS Audiotrack\n\nVideo: 720x400 @bitrate 2500 2pass\nAudio: English 5.1 @448\nSample: yes included\n\nEncode:\nafter my awesome mic and line dubbed version now the extended bluray version\nwith 15 min more footage. the dvd already had a very good quality but the bluray is awesome.\n\nwork done:\nsynced dvdscr audio to the french bluray, and removed french voices of french dts track\nof the sourround channels and embedded the english audio in it. Videobitrate again high for the underwater-scenes\nenjoy\n\n &lt;a href=&quot;\nhttp://www.imdb.com/title/tt1230204/&quot; rel=&quot;nofollow&quot; target=&quot;_NEW&quot;&gt;\nhttp://www.imdb.com/title/tt1230204/&lt;/a&gt;\n\n\nGeneral\nComplete name : A.Turtles.Tale.Sammys.Adventure.2010.UNCUT.BDRip.XVID.AC3.HQ.Hive-CM8.avi\nFormat : AVI\nFormat/Info : Audio Video Interleave\nFile size : 1.77 GiB\nDuration : 1h 25mn\nOverall bit rate : 2 957 Kbps\nWriting application : Nandub v1.0rc2\nWriting library : Nandub build 1853/release\n\nVideo\nID : 0\nFormat : MPEG-4 Visual\nFormat profile : Advanced Simple@L5\nFormat settings, BVOP : Yes\nFormat settings, QPel : Yes\nFormat settings, GMC : No warppoints\nFormat settings, Matrix : Default (H.263)\nMuxing mode : Packed bitstream\nCodec ID : XVID\nCodec ID/Hint : XviD\nDuration : 1h 25mn\nBit rate : 2 500 Kbps\nWidth : 720 pixels\nHeight : 400 pixels\nDisplay aspect ratio : 16:9\nFrame rate : 23.976 fps\nColor space : YUV\nChroma subsampling : 4:2:0\nBit depth : 8 bits\nScan type : Progressive\nBits/(Pixel*Frame) : 0.362\nStream size : 1.49 GiB (85%)\nWriting library : XviD 1.2.1 (UTC 2008-12-04)\n\nAudio\nID : 1\nFormat : AC-3\nFormat/Info : Audio Coding 3\nMode extension : CM (complete main)\nCodec ID : 2000\nDuration : 1h 25mn\nBit rate mode : Constant\nBit rate : 448 Kbps\nChannel(s) : 6 channels\nChannel positions : Front: L C R, Side: L R, LFE\nSampling rate : 48.0 KHz\nBit depth : 16 bits\nStream size : 274 MiB (15%)\nAlignment : Split accross interleaves\nInterleave, duration : 42 ms (1.00 video frame)\nInterleave, preload duration : 500 ms\n\n\n\n\n\nMelanie Griffith ... Snow (voice)\nIsabelle Fuhrman ... Hatchling Shelly (voice)\nYuri Lowenthal ... Sammy\n\n\n\n\nA sea turtle who was hatched in 1959 spends the next 50 years traveling\nthe world while it is being changed by global warming. ","torrent":{"xt":"urn:btih:42d1056232480a4330cb1a452c3e59232ce6712a","amp;dn":"A.Turtles.Tale.Sammys.Adventure.2010.UNCUT.BDRip.XVID.AC3.HQ.Hiv","amp;tr":["udp%3A%2F%2Ftracker.openbittorrent.com%3A80","udp%3A%2F%2Fopen.demonii.com%3A1337","udp%3A%2F%2Ftracker.coppersurfer.tk%3A6969","udp%3A%2F%2Fexodus.desync.com%3A6969"],"infoHash":"42d1056232480a4330cb1a452c3e59232ce6712a","infoHashBuffer":{"type":"Buffer","data":[66,209,5,98,50,72,10,67,48,203,26,69,44,62,89,35,44,230,113,42]},"announce":[],"urlList":[]}}